<?xml version="1.0" encoding="UTF-8"?>
<svg id="Layer_2" data-name="Layer 2" xmlns="http://www.w3.org/2000/svg" xmlns:xlink="http://www.w3.org/1999/xlink" viewBox="0 0 292.17 256.53">
  <defs>
    <linearGradient id="linear-gradient" x1="-52.29" y1="16.34" x2="273.12" y2="341.75" gradientUnits="userSpaceOnUse">
      <stop offset="0" stop-color="#f5c230"/>
      <stop offset="0" stop-color="#de347f"/>
      <stop offset=".5" stop-color="#ef5f43"/>
      <stop offset="1" stop-color="#de347f"/>
    </linearGradient>
    <linearGradient id="linear-gradient-2" x1="32.62" y1="-68.56" x2="358.03" y2="256.84" xlink:href="#linear-gradient"/>
    <linearGradient id="linear-gradient-3" x1="-2.77" y1="-33.17" x2="322.64" y2="292.23" xlink:href="#linear-gradient"/>
    <linearGradient id="linear-gradient-4" x1="71.31" y1="-107.26" x2="396.72" y2="218.15" xlink:href="#linear-gradient"/>
    <linearGradient id="linear-gradient-5" x1="48.5" y1="-84.44" x2="373.91" y2="240.96" xlink:href="#linear-gradient"/>
    <linearGradient id="linear-gradient-6" x1="57.26" y1="-93.2" x2="382.67" y2="232.2" xlink:href="#linear-gradient"/>
    <linearGradient id="linear-gradient-7" x1="26.87" y1="-62.81" x2="352.28" y2="262.59" xlink:href="#linear-gradient"/>
    <linearGradient id="linear-gradient-8" x1="29.49" y1="-65.43" x2="354.89" y2="259.97" xlink:href="#linear-gradient"/>
    <linearGradient id="linear-gradient-9" x1="13.34" y1="-49.28" x2="338.74" y2="276.12" xlink:href="#linear-gradient"/>
    <linearGradient id="linear-gradient-10" x1="-98.62" y1="62.68" x2="226.78" y2="388.08" xlink:href="#linear-gradient"/>
    <linearGradient id="linear-gradient-11" x1="18.91" y1="-54.85" x2="344.31" y2="270.55" xlink:href="#linear-gradient"/>
    <linearGradient id="linear-gradient-12" x1="-56.28" y1="20.34" x2="269.13" y2="345.74" xlink:href="#linear-gradient"/>
    <linearGradient id="linear-gradient-13" x1="44.59" y1="-80.53" x2="369.99" y2="244.87" xlink:href="#linear-gradient"/>
    <linearGradient id="linear-gradient-14" x1="-79.87" y1="43.92" x2="245.54" y2="369.33" xlink:href="#linear-gradient"/>
    <linearGradient id="linear-gradient-15" x1="-61.36" y1="25.42" x2="264.04" y2="350.83" xlink:href="#linear-gradient"/>
    <linearGradient id="linear-gradient-16" x1="-71.91" y1="35.97" x2="253.5" y2="361.37" xlink:href="#linear-gradient"/>
    <linearGradient id="linear-gradient-17" x1="-25.79" y1="-10.15" x2="299.62" y2="315.25" xlink:href="#linear-gradient"/>
    <linearGradient id="linear-gradient-18" x1="-104.59" y1="68.65" x2="220.82" y2="394.05" xlink:href="#linear-gradient"/>
    <linearGradient id="linear-gradient-19" x1="45.53" y1="-81.47" x2="370.93" y2="243.93" xlink:href="#linear-gradient"/>
    <linearGradient id="linear-gradient-20" x1="71.18" y1="-107.13" x2="396.59" y2="218.28" xlink:href="#linear-gradient"/>
    <linearGradient id="linear-gradient-21" x1="32.7" y1="-68.64" x2="358.1" y2="256.76" xlink:href="#linear-gradient"/>
    <linearGradient id="linear-gradient-22" x1="-88.88" y1="52.93" x2="236.53" y2="378.34" xlink:href="#linear-gradient"/>
    <linearGradient id="linear-gradient-23" x1="-75.33" y1="39.39" x2="250.07" y2="364.8" xlink:href="#linear-gradient"/>
    <linearGradient id="linear-gradient-24" x1="79.31" y1="-115.25" x2="404.72" y2="210.15" xlink:href="#linear-gradient"/>
    <linearGradient id="linear-gradient-25" x1="59.99" y1="-95.93" x2="385.39" y2="229.48" xlink:href="#linear-gradient"/>
    <linearGradient id="linear-gradient-26" x1="-34.7" y1="-1.24" x2="290.7" y2="324.16" xlink:href="#linear-gradient"/>
    <linearGradient id="linear-gradient-27" x1="4.13" y1="-40.08" x2="329.54" y2="285.33" xlink:href="#linear-gradient"/>
    <linearGradient id="linear-gradient-28" x1="-84.8" y1="48.85" x2="240.61" y2="374.26" xlink:href="#linear-gradient"/>
    <linearGradient id="linear-gradient-29" x1="62.58" y1="-98.52" x2="387.98" y2="226.88" xlink:href="#linear-gradient"/>
    <linearGradient id="linear-gradient-30" x1="55.57" y1="-91.51" x2="380.97" y2="233.89" xlink:href="#linear-gradient"/>
    <linearGradient id="linear-gradient-31" x1="-45.8" y1="9.85" x2="279.61" y2="335.26" xlink:href="#linear-gradient"/>
    <linearGradient id="linear-gradient-32" x1="-97.84" y1="61.9" x2="227.57" y2="387.3" xlink:href="#linear-gradient"/>
    <linearGradient id="linear-gradient-33" x1="-91.9" y1="55.96" x2="233.51" y2="381.36" xlink:href="#linear-gradient"/>
    <linearGradient id="linear-gradient-34" x1="-82.59" y1="46.65" x2="242.81" y2="372.06" xlink:href="#linear-gradient"/>
    <linearGradient id="linear-gradient-35" x1="-74.09" y1="38.14" x2="251.32" y2="363.55" xlink:href="#linear-gradient"/>
    <linearGradient id="linear-gradient-36" x1="-65.83" y1="29.89" x2="259.57" y2="355.3" xlink:href="#linear-gradient"/>
    <linearGradient id="linear-gradient-37" x1="-60.8" y1="24.85" x2="264.61" y2="350.26" xlink:href="#linear-gradient"/>
    <linearGradient id="linear-gradient-38" x1="-55.67" y1="19.73" x2="269.73" y2="345.14" xlink:href="#linear-gradient"/>
    <linearGradient id="linear-gradient-39" x1="-47.3" y1="11.36" x2="278.11" y2="336.76" xlink:href="#linear-gradient"/>
    <linearGradient id="linear-gradient-40" x1="-37.26" y1="1.31" x2="288.15" y2="326.72" xlink:href="#linear-gradient"/>
    <linearGradient id="linear-gradient-41" x1="-28.75" y1="-7.19" x2="296.66" y2="318.21" xlink:href="#linear-gradient"/>
    <linearGradient id="linear-gradient-42" x1="-59.79" y1="23.84" x2="265.62" y2="349.25" xlink:href="#linear-gradient"/>
    <linearGradient id="linear-gradient-43" x1="-53.14" y1="17.19" x2="272.27" y2="342.6" xlink:href="#linear-gradient"/>
    <linearGradient id="linear-gradient-44" x1="-46.98" y1="11.04" x2="278.42" y2="336.44" xlink:href="#linear-gradient"/>
    <linearGradient id="linear-gradient-45" x1="-39.4" y1="3.46" x2="286" y2="328.87" xlink:href="#linear-gradient"/>
    <linearGradient id="linear-gradient-46" x1="-34.32" y1="-1.63" x2="291.09" y2="323.78" xlink:href="#linear-gradient"/>
    <linearGradient id="linear-gradient-47" x1="-28.98" y1="-6.96" x2="296.42" y2="318.45" xlink:href="#linear-gradient"/>
    <linearGradient id="linear-gradient-48" x1="7.09" y1="-43.04" x2="332.5" y2="282.37" xlink:href="#linear-gradient"/>
  </defs>
  <g id="Layer_1-2" data-name="Layer 1">
    <g>
      <path d="m69.7,43.96c-.22.27-.4.58-.66.81-12.8,11.7-22.28,25.71-29.52,41.44-7.94,17.25-12.17,35.22-11.61,54.21.83,27.77,10.28,52.33,27.88,73.81.41.5.81.81,1.24.97.07.08.13.17.19.26.02.03.03.05.05.07h-4.76c-25.16-32.72-33.91-69.02-23.7-109.24,6.42-25.31,20.45-45.99,40.88-62.33Z" fill="url(#linear-gradient)"/>
      <path d="m267.49,143.72c-.89,21.44-7.61,41.17-18.78,59.45-2.5,4.09-4.87,8.27-7.16,12.35h-3.78c3.45-5.97,6.91-11.93,10.36-17.89,11.62-20.05,17.3-41.65,16.18-64.81-1.58-32.58-14.57-60.31-36.7-83.97-1.58-1.68-3.33-3.2-4.67-5.17,2.43,2.14,4.97,4.17,7.28,6.43,26.26,25.69,38.79,56.93,37.27,93.61Z" fill="url(#linear-gradient-2)"/>
      <path d="m80.22,36.04c-3.76-.39-6.97.43-10.04,1.85-6.71,3.1-11.49,8.36-15.66,14.26-1.19,1.68-2.24,3.45-3.66,5.11.3-1.01.57-2.03.9-3.02,2.5-7.46,5.89-14.43,11.58-20.03,8.29-8.16,18.2-10.48,29.42-8.04,1.33.29,1.67.94,1.57,2.23-.52,7.16-4.2,12.47-9.73,16.66-6.2,4.7-13.34,7.29-20.93,8.88,6.9-4.59,14.05-8.94,16.55-17.9Z" fill="url(#linear-gradient-3)"/>
      <path d="m212.08,35.73c2.58,9.37,9.77,13.64,16.64,18.25-10.14-2.4-19.71-5.84-26.48-14.41-2.49-3.16-3.8-6.81-4.2-10.83-.15-1.57.24-2.3,1.86-2.63,12.71-2.63,23.29.87,31.62,10.86,4.84,5.81,7.7,12.64,9.9,19.79.06.18-.03.4-.07.73-6.99-10.76-14.28-20.96-29.27-21.77Z" fill="url(#linear-gradient-4)"/>
      <path d="m153.92,23.6c-1.77-.99-3.61-1.87-5.29-2.99-1.46-.97-2.68-.97-4.1.03-1.28.9-2.68,1.65-4.06,2.39-.39.21-1.06.33-1.36.13-.27-.18-.33-.88-.25-1.32.3-1.69.56-3.4,1.07-5.03.46-1.49.01-2.41-1.13-3.31-1.29-1.02-2.49-2.15-3.66-3.3-.35-.35-.48-.93-.71-1.4.43-.2.85-.51,1.3-.57,1.77-.23,3.59-.22,5.32-.62.88-.21,1.84-.95,2.32-1.73.88-1.45,1.4-3.12,2.15-4.67.23-.47.69-.82,1.05-1.22.41.43.96.79,1.22,1.3.7,1.4,1.38,2.83,1.89,4.31.52,1.51,1.49,2.1,3.03,2.15,1.64.06,3.28.26,4.91.48.44.06,1.08.33,1.19.65.1.32-.25.92-.57,1.22-1.23,1.19-2.47,2.4-3.83,3.43-1.21.92-1.45,1.89-1.06,3.33.56,2.03.87,4.13,1.29,6.19-.23.17-.47.35-.7.52Z" fill="url(#linear-gradient-5)"/>
      <path d="m181.98,33.31c-1.21-.67-2.46-1.28-3.6-2.04-.99-.66-1.83-.66-2.79.02-.87.62-1.82,1.12-2.77,1.63-.27.14-.72.23-.92.09-.18-.12-.22-.6-.17-.9.2-1.15.38-2.31.73-3.42.32-1.01,0-1.64-.77-2.26-.88-.69-1.7-1.46-2.5-2.25-.24-.24-.33-.63-.48-.95.29-.13.58-.35.88-.39,1.21-.16,2.45-.15,3.62-.43.6-.14,1.26-.65,1.58-1.18.6-.99.96-2.13,1.46-3.18.15-.32.47-.56.71-.83.28.29.66.54.83.88.48.95.94,1.93,1.29,2.94.36,1.03,1.02,1.43,2.07,1.47,1.12.04,2.23.18,3.34.33.3.04.74.22.81.44.07.22-.17.63-.39.83-.84.81-1.68,1.64-2.61,2.34-.83.63-.99,1.29-.72,2.27.38,1.38.6,2.81.88,4.22-.16.12-.32.24-.48.36Z" fill="url(#linear-gradient-6)"/>
      <path d="m121.2,33.31c-1.21-.67-2.46-1.28-3.6-2.04-.99-.66-1.83-.66-2.79.02-.87.62-1.82,1.12-2.77,1.63-.27.14-.72.23-.92.09-.18-.12-.22-.6-.17-.9.2-1.15.38-2.31.73-3.42.32-1.01,0-1.64-.77-2.26-.88-.69-1.7-1.46-2.5-2.25-.24-.24-.33-.63-.48-.95.29-.13.58-.35.88-.39,1.21-.16,2.45-.15,3.62-.43.6-.14,1.26-.65,1.58-1.18.6-.99.96-2.13,1.46-3.18.15-.32.47-.56.71-.83.28.29.66.54.83.88.48.95.94,1.93,1.29,2.94.36,1.03,1.02,1.43,2.07,1.47,1.12.04,2.23.18,3.34.33.3.04.74.22.81.44.07.22-.17.63-.39.83-.84.81-1.68,1.64-2.61,2.34-.83.63-.99,1.29-.72,2.27.38,1.38.6,2.81.88,4.22-.16.12-.32.24-.48.36Z" fill="url(#linear-gradient-7)"/>
      <path d="m261.64,183.1c5.01-.33,9.74-.89,13.96-3.37.9-.53,1.7-1.22,2.92-2.12-6.3-1.4-11.28.81-16.25,3.64,1.57-3.33,6.41-6.67,11.03-7.71,4.09-.93,8.07-.42,12,.92,1.2.41,1.54.95,1.06,2.19-1.88,4.92-5.24,8.06-10.51,9.02-4.35.79-10.93-.33-14.21-2.56Z" fill="url(#linear-gradient-8)"/>
      <path d="m251.17,203.98c8.81.27,13.51-.73,16.82-3.5-3.02-2.36-10.84-.96-16.18,1.93,3.85-7.08,17.93-9.07,25.1-3.55-3.6,9.86-16.98,12.63-25.73,5.12Z" fill="url(#linear-gradient-9)"/>
      <path d="m5.71,175.16c8.64-4.35,19.94-1.6,24.6,6.17-3.94-2.19-7.68-4.09-11.99-4.22-1.31-.04-2.63.13-3.99.48,4.55,4.32,10.28,5.07,16.19,5.46-7.73,6.93-22.66,2.18-24.81-7.9Z" fill="url(#linear-gradient-10)"/>
      <path d="m253.74,179.27c-5.28-8.85-6.85-10.61-11.16-12.21,1.5,6.43,5.92,10.39,10.73,14.33-12.66-1.62-20.49-12.14-16-21.13,9.47,1.34,17.3,10.41,16.43,19.02Z" fill="url(#linear-gradient-11)"/>
      <path d="m25.85,106.71c-11.68-2.4-18.64-14.33-13.82-23.41,8.58,1.75,15.13,11.31,14.69,22.16-2.18-5.98-4.32-11.36-10.06-14.72.92,6.82,4.95,11.39,9.18,15.98Z" fill="url(#linear-gradient-12)"/>
      <path d="m249.41,123.22c2.49,6.16,7.24,9.47,12.35,12.58-10.93,1.88-21.73-9.03-18.42-18.36,9-.13,17.74,6.58,19.13,17.01-3.29-5.18-6.75-9.54-13.07-11.24Z" fill="url(#linear-gradient-13)"/>
      <path d="m39.05,181.35c4.98-4.01,9.17-8,10.83-14.46-6.03,2.52-8.79,7.33-11.27,12.7-.56-9.24,6.14-17.08,16.28-19.42,5.36,7.88-3.16,19.6-15.83,21.17Z" fill="url(#linear-gradient-14)"/>
      <path d="m49.06,117.38c2.97,9.72-6.35,19.14-18.33,18.6,2.36-1.77,4.86-3.3,6.92-5.28,2.06-1.98,3.67-4.42,5.78-7.02-4.17-.04-6.7,2.04-13.39,10.35.63-8.9,9.5-16.71,19.03-16.64Z" fill="url(#linear-gradient-15)"/>
      <path d="m50.25,139.36c2.79,10.18-5.47,19.14-18.17,19.35,5.21-3.5,9.99-6.93,12.06-12.9-3.77.29-6.61,2.84-12.33,10.93.06-8.83,8.81-17.13,18.45-17.38Z" fill="url(#linear-gradient-16)"/>
      <path d="m61.15,70.32c-6.56.35-10.79,3.91-14.8,8.12,2.53-8.71,11.83-14.49,21.85-12.62,1.98,9.44-10.69,17.92-21.75,14.31,5.64-2.07,11.02-4.21,14.7-9.8Z" fill="url(#linear-gradient-17)"/>
      <path d="m24.33,200.59c5.01,3.55,10.8,3.62,16.7,3.38-7.22,7.62-21.51,4.76-25.6-5.04,6.03-4.55,18.11-5.31,25.09,3.17-2.53-.79-5.16-1.95-7.9-2.38-2.67-.42-5.46-.09-8.2-.09-.03.32-.06.64-.09.97Z" fill="url(#linear-gradient-18)"/>
      <path d="m284.47,151.1c-6.54-.51-11.24,2.32-15.71,5.87,3.89-9.05,15.05-12.34,23.41-9.26-.05,9.89-12.35,15.79-23.82,11.1,5.98-1.31,11.66-2.64,16.12-7.71Z" fill="url(#linear-gradient-19)"/>
      <path d="m265.76,105.34c-1.09-9.84,5.49-19.63,14.47-22.09,5.22,8.27-1.69,20.32-13.78,23.56,4.27-4.69,8.33-9.24,9.26-16.12-5.69,3.46-7.97,8.73-9.95,14.65Z" fill="url(#linear-gradient-20)"/>
      <path d="m242.13,139.35c9.7.33,17.28,7.46,18.61,17.91-3.12-5.38-6.43-9.86-12.63-11.84,2.11,6.35,6.91,9.73,11.89,13.1-10.99,1.4-20.72-9.05-17.87-19.17Z" fill="url(#linear-gradient-21)"/>
      <path d="m0,147.82c6.97-2.73,18.09-1.37,23.83,8.98-2.45-1.45-4.76-2.99-7.22-4.23-2.55-1.29-5.31-1.9-8.6-1.34,4.31,4.91,9.95,6.27,15.83,7.52-10.34,5.08-22.09-.36-23.85-10.93Z" fill="url(#linear-gradient-22)"/>
      <path d="m.41,116.78c8.98-1.29,19.08,5.79,21.97,15.58-4.04-4.78-8.07-8.99-14.77-10.28,3.39,6.03,8.7,8.84,14.12,11.54-9.47,3.27-22.01-6.6-21.33-16.84Z" fill="url(#linear-gradient-23)"/>
      <path d="m264.76,53.13c7.61,10.18-.47,20.3-9.63,24.37,1.51-2.62,3.11-5.09,4.41-7.71,1.29-2.61,2.17-5.38,1.7-8.8-5.03,3.99-6.45,9.35-7.41,15.34-2.56-9.95,2.2-19.85,10.93-23.2Z" fill="url(#linear-gradient-24)"/>
      <path d="m284.26,122.41c-6.2,1.07-10.31,5.12-14.17,9.89,3.02-10.95,13.96-16.59,21.79-15.47,1.19,9.94-10.55,19.3-21.41,16.87,5.52-2.78,10.87-5.57,13.78-11.3Z" fill="url(#linear-gradient-25)"/>
      <path d="m27.55,53.15c7.64,3.08,13.91,11.95,11,23.24-1-6.03-2.38-11.42-7.56-15.49-.21,6.75,2.93,11.62,6.38,16.4-10.44-1.96-16.05-15.61-9.82-24.15Z" fill="url(#linear-gradient-26)"/>
      <path d="m227.52,179.96c9.76,1.53,16.62,9.56,16.61,19.72-2.46-5.59-5.32-10.45-11.3-13.04,1.43,6.54,5.93,10.45,10.62,14.41-12.33-1.21-19.96-11.33-15.93-21.09Z" fill="url(#linear-gradient-27)"/>
      <path d="m64.78,179.99c4.51,8.99-3.64,19.96-15.83,21.03,4.65-3.93,9.09-7.82,10.62-14.27-3.16,1.05-5.31,2.96-6.99,5.32-1.63,2.28-2.95,4.79-4.37,7.13.38-10.11,7.08-17.9,16.58-19.21Z" fill="url(#linear-gradient-28)"/>
      <path d="m224,65.89c9.55-1.98,18.19,2.83,22,12.31-4.02-3.94-8.24-7.51-14.82-7.92,3.7,5.61,9.04,7.84,14.78,9.81-11.11,3.69-22.64-3.85-21.96-14.21Z" fill="url(#linear-gradient-29)"/>
      <path d="m237.67,91.12c9.45-.58,18.34,6.28,20.86,16.38-3.75-5.04-7.6-9.29-14.13-10.79,3.05,6.12,8.13,9.18,13.47,12.04-10.11,2.74-21.76-7.4-20.21-17.62Z" fill="url(#linear-gradient-30)"/>
      <path d="m34,107.05c1.77-9.13,11.34-16.57,20.53-15.94,2.66,9.23-8.28,19.01-20.34,17.81,5.52-3,10.63-6.06,13.51-11.7-3.26-.43-6.29,1.77-13.7,9.83Z" fill="url(#linear-gradient-31)"/>
      <g>
        <path d="m62.67,234.49c0-1.4.39-2.59,1.16-3.57.77-.98,1.83-1.79,3.17-2.42,1.34-.63,2.9-1.09,4.69-1.37,1.78-.29,3.69-.43,5.73-.43.97,0,1.92,0,2.84.03.92.02,1.76.04,2.52.08.76.04,1.42.08,1.97.13.55.05.95.1,1.2.16.24.06.43.13.57.2.14.07.25.16.32.25.07.1.12.21.14.33.02.13.04.27.04.44,0,.14-.02.3-.05.48-.04.17-.09.34-.16.48-.07.15-.16.28-.27.39-.11.11-.24.16-.4.16-.1,0-.2-.04-.31-.13-.11-.08-.28-.19-.48-.32-.21-.13-.49-.27-.84-.41-.35-.14-.83-.28-1.42-.41-.59-.13-1.33-.24-2.21-.32-.88-.08-1.94-.13-3.19-.13v11.51h7.45v1.58h-7.45v7.02c0,.56.08,1.04.25,1.45.17.4.41.73.72,1,.31.26.69.46,1.12.58.44.12.93.18,1.46.18.61,0,1.22-.06,1.83-.19s1.19-.28,1.73-.48c.54-.19,1.04-.41,1.49-.65.45-.24.81-.47,1.09-.7l.7.77c-.3.24-.7.57-1.2.98-.5.41-1.12.82-1.84,1.21-.72.4-1.57.74-2.53,1.03-.96.29-2.06.44-3.28.44-.41,0-.87-.02-1.39-.06-.52-.04-1.06-.13-1.61-.25-.55-.13-1.09-.31-1.63-.56-.53-.25-1.01-.57-1.42-.98-.41-.41-.75-.91-1.01-1.5-.26-.59-.39-1.3-.39-2.13v-7.17h-2.8v-1.58h2.8v-11.3c-.38.04-.82.1-1.32.21-.5.1-1.01.25-1.53.43-.52.19-1.03.4-1.54.66s-.95.55-1.35.88c-.4.34-.72.71-.96,1.12-.25.41-.37.86-.37,1.34,0,.38.05.69.15.92.1.23.22.4.35.51.13.11.27.19.4.22.14.03.24.04.3.04.3,0,.54-.05.74-.15.19-.1.37-.21.52-.32.16-.11.3-.22.44-.32.14-.1.3-.15.48-.15.14,0,.3.03.46.1.16.07.31.17.45.31.14.14.25.33.35.57.1.23.14.52.14.85,0,.48-.09.9-.28,1.25-.19.35-.43.64-.72.87-.29.23-.63.4-1.01.51-.38.11-.75.17-1.12.17-.57,0-1.09-.1-1.55-.3-.46-.2-.85-.47-1.18-.82s-.57-.75-.74-1.21c-.17-.46-.25-.96-.25-1.5Z" fill="url(#linear-gradient-32)"/>
        <path d="m98.34,241.62l1.99-2.96c.17-.26.31-.53.42-.8s.21-.53.29-.79c.08-.26.14-.5.2-.72.05-.22.1-.41.15-.57.1-.31.26-.54.49-.67.23-.14.58-.21,1.06-.21.28,0,.52.05.73.14.21.1.31.25.31.47,0,.35-.12.78-.36,1.28-.24.51-.56,1.05-.97,1.63l-3.34,4.8,4.67,7.8c.12.22.23.39.33.52.1.13.2.23.3.31.1.07.19.12.29.15.1.03.2.04.32.04.13,0,.26-.03.4-.1.13-.07.28-.16.45-.3l.38.43c-.28.23-.56.45-.86.67-.3.22-.63.42-1,.58s-.77.31-1.2.41c-.44.11-.93.16-1.46.16-.61,0-1.14-.1-1.58-.31-.44-.21-.83-.47-1.16-.78-.33-.31-.61-.65-.84-1.01-.23-.36-.43-.69-.6-.99l-2.62-4.36-2.42,3.63c-.17.26-.31.53-.42.8s-.21.53-.29.79c-.08.26-.14.5-.2.72s-.1.41-.15.57c-.1.31-.26.54-.48.67-.23.14-.58.21-1.06.21-.28,0-.52-.05-.73-.14-.21-.1-.31-.25-.31-.47,0-.35.11-.75.32-1.21.22-.46.55-1.03,1.01-1.7l3.83-5.44-4.31-7.26c-.14-.24-.28-.44-.4-.6-.13-.16-.31-.24-.55-.24s-.51.14-.84.41l-.36-.45c.28-.23.57-.45.9-.67.32-.22.67-.42,1.05-.58.38-.17.79-.31,1.23-.41.44-.11.92-.16,1.42-.16.56,0,1.04.09,1.43.26.39.17.72.39.99.66.27.26.5.56.69.88.19.32.38.63.56.92l2.35,4.01Z" fill="url(#linear-gradient-33)"/>
        <path d="m119.07,241.11c-.37,0-.68-.06-.93-.17-.25-.11-.46-.27-.61-.46-.16-.19-.27-.4-.34-.64s-.11-.48-.11-.73c0-.32.02-.63.06-.93.04-.3.05-.57.02-.81-.03-.24-.12-.43-.28-.57-.16-.14-.43-.22-.83-.22-.42,0-.86.12-1.33.36-.47.24-.89.62-1.28,1.13-.38.51-.7,1.18-.95,1.98-.25.81-.38,1.78-.38,2.92,0,1.26.12,2.4.35,3.44.23,1.04.58,1.92,1.05,2.65.47.73,1.05,1.3,1.74,1.7.69.4,1.51.6,2.44.6.42,0,.82-.05,1.19-.14s.73-.23,1.07-.4.66-.36.96-.58.6-.46.89-.71l.45.43c-.28.37-.63.78-1.06,1.22s-.95.86-1.56,1.25c-.61.39-1.32.71-2.14.97-.81.26-1.74.39-2.78.39s-2.06-.2-3.04-.6-1.87-.98-2.63-1.75c-.77-.77-1.38-1.7-1.84-2.79-.46-1.1-.69-2.34-.69-3.75,0-1.09.14-2.09.41-3.01.28-.92.65-1.75,1.12-2.49.47-.74,1.02-1.39,1.65-1.96.63-.56,1.29-1.03,1.98-1.41.69-.38,1.4-.66,2.13-.85.72-.19,1.42-.29,2.09-.29.89,0,1.66.1,2.32.31.66.2,1.21.47,1.64.81.44.34.76.72.98,1.16.22.44.32.89.32,1.36,0,.35-.04.68-.13,1-.09.32-.22.59-.4.83-.17.23-.39.42-.66.56-.26.14-.57.21-.92.21Z" fill="url(#linear-gradient-34)"/>
        <path d="m129.33,245.3c0,.38.06.8.17,1.25.11.45.28.9.49,1.36.22.46.48.89.8,1.3.32.41.68.78,1.1,1.1.41.32.87.58,1.37.77s1.05.29,1.65.29c.42,0,.81-.05,1.17-.14s.69-.23,1.01-.4c.31-.17.61-.36.9-.58.29-.22.57-.46.86-.71l.45.43c-.28.37-.63.78-1.06,1.22s-.95.86-1.56,1.25c-.61.39-1.32.71-2.14.97-.81.26-1.74.39-2.78.39s-2.06-.19-3.04-.57-1.87-.94-2.63-1.7c-.77-.75-1.38-1.69-1.84-2.82s-.69-2.44-.69-3.95c0-1.09.14-2.09.41-3,.28-.91.65-1.73,1.12-2.46.47-.73,1.02-1.37,1.65-1.92.63-.55,1.29-1.01,1.98-1.37.69-.37,1.4-.64,2.13-.83.72-.19,1.42-.28,2.09-.28.89,0,1.66.1,2.32.29.66.19,1.21.45,1.64.77.44.32.76.7.98,1.12.22.43.32.87.32,1.34,0,.56-.16,1.07-.48,1.52-.32.45-.75.84-1.29,1.18l-7.1,4.19Zm3.61-3.65c.16-.1.28-.19.39-.28.1-.09.18-.2.24-.32s.1-.28.13-.47c.03-.19.04-.42.04-.69,0-.3-.03-.63-.1-1-.07-.37-.18-.71-.33-1.03-.16-.32-.35-.59-.59-.81-.24-.22-.53-.32-.86-.32-.43,0-.8.13-1.1.39s-.56.59-.75,1c-.2.41-.35.87-.47,1.39-.11.52-.2,1.04-.26,1.57-.06.53-.1,1.03-.11,1.52-.01.48-.02.9-.02,1.23l3.79-2.17Z" fill="url(#linear-gradient-35)"/>
        <path d="m146.91,251.96c0,.16-.03.34-.08.56s-.18.42-.38.61c-.2.19-.49.36-.86.49-.38.14-.88.21-1.52.21s-1.13-.08-1.49-.22c-.36-.15-.63-.33-.8-.53-.17-.2-.28-.41-.32-.63-.04-.22-.06-.39-.06-.52v-23.17c0-.35-.08-.65-.24-.91-.16-.26-.43-.39-.82-.39-.2,0-.38.03-.53.1-.15.07-.31.16-.48.3l-.36-.43c.28-.23.58-.45.92-.67.34-.22.7-.42,1.1-.58.4-.17.83-.31,1.28-.41.45-.11.93-.16,1.44-.16.78,0,1.38.11,1.81.31.43.21.75.47.95.77.2.31.33.63.37.97.04.34.06.64.06.91v23.4Z" fill="url(#linear-gradient-36)"/>
        <path d="m156.99,251.96c0,.16-.03.34-.08.56s-.18.42-.38.61c-.2.19-.49.36-.86.49-.38.14-.88.21-1.52.21s-1.13-.08-1.49-.22c-.36-.15-.63-.33-.8-.53-.17-.2-.28-.41-.32-.63-.04-.22-.06-.39-.06-.52v-23.17c0-.35-.08-.65-.24-.91-.16-.26-.43-.39-.82-.39-.2,0-.38.03-.53.1-.15.07-.31.16-.48.3l-.36-.43c.28-.23.58-.45.92-.67.34-.22.7-.42,1.1-.58.4-.17.83-.31,1.28-.41.45-.11.93-.16,1.44-.16.78,0,1.38.11,1.81.31.43.21.75.47.95.77.2.31.33.63.37.97.04.34.06.64.06.91v23.4Z" fill="url(#linear-gradient-37)"/>
        <path d="m166.15,245.3c0,.38.06.8.17,1.25.11.45.28.9.49,1.36.22.46.48.89.8,1.3.32.41.68.78,1.1,1.1.41.32.87.58,1.37.77s1.05.29,1.65.29c.42,0,.81-.05,1.17-.14s.69-.23,1.01-.4c.31-.17.61-.36.9-.58.29-.22.57-.46.86-.71l.45.43c-.28.37-.63.78-1.06,1.22s-.95.86-1.56,1.25c-.61.39-1.32.71-2.14.97-.81.26-1.74.39-2.78.39s-2.06-.19-3.04-.57-1.87-.94-2.63-1.7c-.77-.75-1.38-1.69-1.84-2.82s-.69-2.44-.69-3.95c0-1.09.14-2.09.41-3,.28-.91.65-1.73,1.12-2.46.47-.73,1.02-1.37,1.65-1.92.63-.55,1.29-1.01,1.98-1.37.69-.37,1.4-.64,2.13-.83.72-.19,1.42-.28,2.09-.28.89,0,1.66.1,2.32.29.66.19,1.21.45,1.64.77.44.32.76.7.98,1.12.22.43.32.87.32,1.34,0,.56-.16,1.07-.48,1.52-.32.45-.75.84-1.29,1.18l-7.1,4.19Zm3.61-3.65c.16-.1.28-.19.39-.28.1-.09.18-.2.24-.32s.1-.28.13-.47c.03-.19.04-.42.04-.69,0-.3-.03-.63-.1-1-.07-.37-.18-.71-.33-1.03-.16-.32-.35-.59-.59-.81-.24-.22-.53-.32-.86-.32-.43,0-.8.13-1.1.39s-.56.59-.75,1c-.2.41-.35.87-.47,1.39-.11.52-.2,1.04-.26,1.57-.06.53-.1,1.03-.11,1.52-.01.48-.02.9-.02,1.23l3.79-2.17Z" fill="url(#linear-gradient-38)"/>
        <path d="m189.11,244.6c0-1.51-.07-2.72-.21-3.62-.14-.9-.32-1.59-.55-2.07-.23-.47-.48-.78-.75-.93-.28-.15-.56-.22-.84-.22-.35,0-.66.09-.93.28-.27.19-.5.4-.7.64-.2.24-.37.48-.5.72-.14.24-.25.42-.35.54v12c0,.16-.02.34-.07.57-.05.22-.16.43-.35.63-.19.2-.46.37-.83.5s-.87.21-1.5.21-1.13-.08-1.5-.22-.64-.33-.84-.53c-.19-.2-.31-.41-.36-.63-.05-.22-.07-.39-.07-.52v-13.87c0-.35-.08-.65-.24-.91-.16-.26-.43-.39-.82-.39-.2,0-.38.04-.52.11-.14.07-.3.17-.47.31l-.38-.45c.28-.23.58-.45.93-.67.34-.22.71-.42,1.1-.58.4-.17.82-.31,1.28-.41.45-.11.93-.16,1.44-.16.78,0,1.38.13,1.81.39.43.26.75.57.95.93.2.36.33.73.37,1.12.04.39.06.72.06.98.44-.63.95-1.2,1.51-1.71.23-.22.48-.42.76-.63.28-.2.58-.39.9-.55.32-.16.65-.29,1.01-.39.35-.1.72-.14,1.09-.14.81,0,1.54.16,2.16.47.63.31,1.16.83,1.59,1.56.43.73.76,1.7.99,2.9.23,1.2.34,2.7.34,4.48s-.16,3.25-.47,4.53c-.31,1.28-.72,2.37-1.22,3.27-.5.9-1.07,1.63-1.71,2.2s-1.28,1.02-1.92,1.34c-.65.32-1.27.55-1.86.67-.59.13-1.1.19-1.54.21l-.2-.74c.36-.08.69-.22,1-.4.31-.18.58-.44.84-.79.25-.35.47-.79.66-1.32.19-.53.36-1.2.49-2,.14-.8.24-1.75.31-2.85.07-1.1.1-2.37.1-3.83Z" fill="url(#linear-gradient-39)"/>
        <path d="m209.75,241.11c-.37,0-.68-.06-.93-.17-.25-.11-.46-.27-.61-.46-.16-.19-.27-.4-.34-.64s-.11-.48-.11-.73c0-.32.02-.63.06-.93.04-.3.05-.57.02-.81-.03-.24-.12-.43-.28-.57-.16-.14-.43-.22-.83-.22-.42,0-.86.12-1.33.36-.47.24-.89.62-1.28,1.13-.38.51-.7,1.18-.95,1.98-.25.81-.38,1.78-.38,2.92,0,1.26.12,2.4.35,3.44.23,1.04.58,1.92,1.05,2.65.47.73,1.05,1.3,1.74,1.7.69.4,1.51.6,2.44.6.42,0,.82-.05,1.19-.14s.73-.23,1.07-.4.66-.36.96-.58.6-.46.89-.71l.45.43c-.28.37-.63.78-1.06,1.22s-.95.86-1.56,1.25c-.61.39-1.32.71-2.14.97-.81.26-1.74.39-2.78.39s-2.06-.2-3.04-.6-1.87-.98-2.63-1.75c-.77-.77-1.38-1.7-1.84-2.79-.46-1.1-.69-2.34-.69-3.75,0-1.09.14-2.09.41-3.01.28-.92.65-1.75,1.12-2.49.47-.74,1.02-1.39,1.65-1.96.63-.56,1.29-1.03,1.98-1.41.69-.38,1.4-.66,2.13-.85.72-.19,1.42-.29,2.09-.29.89,0,1.66.1,2.32.31.66.2,1.21.47,1.64.81.44.34.76.72.98,1.16.22.44.32.89.32,1.36,0,.35-.04.68-.13,1-.09.32-.22.59-.4.83-.17.23-.39.42-.66.56-.26.14-.57.21-.92.21Z" fill="url(#linear-gradient-40)"/>
        <path d="m220,245.3c0,.38.06.8.17,1.25.11.45.28.9.49,1.36.22.46.48.89.8,1.3.32.41.68.78,1.1,1.1.41.32.87.58,1.37.77s1.05.29,1.65.29c.42,0,.81-.05,1.17-.14s.69-.23,1.01-.4c.31-.17.61-.36.9-.58.29-.22.58-.46.86-.71l.45.43c-.28.37-.63.78-1.06,1.22-.43.44-.95.86-1.56,1.25-.61.39-1.32.71-2.14.97-.81.26-1.74.39-2.78.39s-2.06-.19-3.04-.57-1.87-.94-2.63-1.7c-.77-.75-1.38-1.69-1.84-2.82s-.69-2.44-.69-3.95c0-1.09.14-2.09.41-3,.28-.91.65-1.73,1.12-2.46.47-.73,1.02-1.37,1.65-1.92.63-.55,1.29-1.01,1.98-1.37.69-.37,1.4-.64,2.13-.83.72-.19,1.42-.28,2.09-.28.89,0,1.66.1,2.32.29.66.19,1.21.45,1.64.77.44.32.76.7.98,1.12.22.43.32.87.32,1.34,0,.56-.16,1.07-.48,1.52-.32.45-.75.84-1.29,1.18l-7.1,4.19Zm3.61-3.65c.16-.1.28-.19.39-.28.1-.09.18-.2.24-.32s.1-.28.13-.47c.03-.19.04-.42.04-.69,0-.3-.03-.63-.1-1-.07-.37-.18-.71-.33-1.03-.16-.32-.35-.59-.59-.81-.24-.22-.53-.32-.86-.32-.43,0-.8.13-1.1.39s-.56.59-.75,1c-.2.41-.35.87-.47,1.39-.11.52-.2,1.04-.26,1.57-.06.53-.1,1.03-.11,1.52-.01.48-.02.9-.02,1.23l3.79-2.17Z" fill="url(#linear-gradient-41)"/>
      </g>
      <g>
        <path d="m116.29,222.25c.7,0,1.36-.19,1.97-.55.61-.37,1.19-.88,1.73-1.53.54-.65,1.06-1.42,1.54-2.31.49-.89.94-1.86,1.38-2.9-1.05-3.46-2.11-6.56-3.19-9.3-1.08-2.74-2.12-5.06-3.14-6.96-.53-1.02-1.08-1.78-1.65-2.3-.57-.51-1.11-.77-1.62-.77-.31,0-.58.06-.82.19-.24.13-.45.27-.62.42l-.36-.45c.2-.2.45-.41.75-.62.3-.21.64-.41,1.04-.59.39-.18.84-.33,1.33-.45.49-.12,1.04-.17,1.64-.17.3,0,.63.03.99.08.37.05.74.16,1.12.32.38.16.76.38,1.13.66.37.28.73.66,1.07,1.13.74,1.04,1.52,2.5,2.35,4.39.83,1.89,1.71,4.18,2.64,6.88.3-.89.59-1.78.88-2.67.29-.89.58-1.75.88-2.59s.6-1.65.9-2.43.62-1.51.94-2.19c.34-.72.68-1.36,1.03-1.91s.74-1.02,1.15-1.39c.42-.37.89-.66,1.41-.86.52-.2,1.11-.3,1.79-.3.5,0,.91.11,1.23.32s.48.54.48.97c0,.38-.06.7-.19.95s-.3.37-.52.37c-.18,0-.32-.07-.42-.21-.1-.14-.2-.29-.3-.45-.1-.16-.22-.31-.36-.45-.14-.14-.34-.21-.6-.21-.59,0-1.13.27-1.62.81-.49.54-.96,1.27-1.4,2.19-.44.92-.86,2-1.27,3.24-.41,1.23-.82,2.54-1.23,3.93-.41,1.38-.85,2.81-1.3,4.27-.45,1.47-.94,2.89-1.46,4.27-.52,1.38-1.09,2.69-1.71,3.93-.62,1.23-1.31,2.31-2.07,3.24-.76.92-1.6,1.65-2.52,2.19-.92.54-1.95.81-3.07.81-.49,0-.96-.04-1.42-.12s-.86-.19-1.23-.34c-.36-.14-.66-.32-.89-.52-.24-.2-.37-.42-.4-.65-.02-.17-.01-.35.02-.53.03-.18.09-.34.17-.48.08-.14.18-.26.31-.36.13-.1.28-.14.45-.14.11,0,.2.05.3.16.09.11.19.24.3.4s.22.33.35.51c.13.18.29.35.48.51.19.16.42.29.68.4.26.11.58.16.96.16Z" fill="url(#linear-gradient-42)"/>
        <path d="m135.57,208.91c0,.31.05.64.14,1,.09.36.22.72.4,1.09.17.37.39.71.64,1.04.25.33.55.63.88.89.33.26.7.47,1.1.62s.85.23,1.33.23c.34,0,.65-.04.94-.12.29-.08.56-.18.81-.32.25-.13.49-.29.72-.47.23-.18.46-.37.69-.57l.36.35c-.22.3-.5.62-.85.98-.35.36-.76.69-1.25,1-.49.31-1.06.57-1.72.78s-1.4.31-2.23.31-1.65-.15-2.44-.45-1.5-.76-2.11-1.36c-.62-.61-1.11-1.36-1.48-2.26-.37-.9-.55-1.96-.55-3.17,0-.87.11-1.68.33-2.41.22-.73.52-1.39.9-1.97.38-.59.82-1.1,1.33-1.54.5-.44,1.04-.81,1.59-1.1.56-.29,1.13-.51,1.71-.66.58-.15,1.14-.22,1.68-.22.71,0,1.33.08,1.86.23.53.15.97.36,1.32.62s.61.56.79.9c.17.34.26.7.26,1.07,0,.45-.13.86-.39,1.22-.26.36-.61.67-1.04.94l-5.69,3.36Zm2.9-2.93c.12-.08.23-.15.31-.22.08-.07.15-.16.19-.26.05-.1.08-.23.11-.37.02-.15.04-.33.04-.55,0-.24-.03-.51-.08-.8-.05-.29-.14-.57-.27-.83s-.28-.48-.48-.65c-.19-.17-.42-.26-.69-.26-.35,0-.64.1-.89.31-.25.21-.45.47-.61.8-.16.33-.28.7-.37,1.12-.09.42-.16.84-.21,1.26-.05.42-.08.83-.09,1.22,0,.39-.01.72-.01.99l3.04-1.74Z" fill="url(#linear-gradient-43)"/>
        <path d="m149.71,201.74c-.33,0-.63.04-.91.12-.28.08-.52.17-.72.29-.2.12-.36.24-.48.38s-.17.27-.17.4c0,.14.07.25.22.31.15.06.31.13.5.22.18.08.35.2.5.35s.22.38.22.68c0,.2-.04.39-.12.55-.08.17-.19.32-.33.45-.14.13-.3.23-.49.3-.19.07-.38.11-.58.11-.54,0-.97-.18-1.3-.55-.33-.37-.5-.85-.5-1.46s.15-1.09.46-1.51c.31-.42.71-.76,1.2-1.03.49-.27,1.05-.47,1.68-.6.62-.13,1.25-.19,1.87-.19.75,0,1.47.08,2.15.24.68.16,1.29.42,1.81.78.52.36.94.81,1.25,1.36.31.55.47,1.21.47,1.99v8.14c0,.09,0,.18.01.29,0,.11.03.2.07.29.04.09.1.16.17.22.08.06.19.09.33.09.17,0,.33-.06.48-.19.15-.13.28-.26.4-.4l.36.3c-.14.2-.32.42-.52.66s-.45.47-.73.68c-.29.21-.62.39-1.01.53-.38.14-.82.22-1.31.22-.61,0-1.14-.18-1.61-.54-.47-.36-.78-.92-.92-1.66-.31.41-.63.76-.96,1.04s-.67.5-1.02.68-.69.3-1.04.37c-.35.08-.7.12-1.06.12-.46,0-.91-.07-1.34-.22-.43-.14-.82-.37-1.16-.68-.34-.31-.62-.72-.82-1.22s-.31-1.11-.31-1.83c0-.87.17-1.59.52-2.15.35-.56.8-1.03,1.36-1.41.56-.38,1.2-.7,1.92-.97s1.45-.55,2.2-.85c.56-.22.96-.55,1.22-.99.25-.44.38-.89.38-1.35,0-.71-.21-1.28-.63-1.71-.42-.43-.99-.64-1.71-.64Zm2.29,6.31c0-.24-.08-.42-.23-.55-.15-.12-.35-.19-.59-.19-.34,0-.66.08-.96.23-.3.15-.57.38-.8.68-.23.3-.41.67-.55,1.1-.13.44-.2.94-.2,1.52s.04,1.02.12,1.38c.08.37.19.66.33.87.14.22.3.37.48.45.18.09.37.13.58.13.25,0,.49-.06.71-.19.22-.13.41-.3.58-.5.16-.2.29-.43.39-.68.1-.25.14-.5.14-.75v-3.52Z" fill="url(#linear-gradient-44)"/>
        <path d="m164.82,203.6c.37-.56.75-1.06,1.17-1.51.17-.19.36-.38.56-.56.2-.18.41-.35.63-.49.22-.14.44-.26.67-.35.23-.09.46-.13.69-.13.49,0,.87.15,1.15.44.28.29.42.7.42,1.23,0,.33-.03.64-.08.94s-.16.67-.31,1.1h-.4c-.06-.3-.19-.55-.4-.74-.21-.2-.52-.3-.92-.3-.3,0-.59.06-.88.17-.29.11-.57.25-.84.41-.27.16-.53.34-.78.53-.24.19-.47.37-.67.55v9.35c0,.12-.02.27-.06.45-.04.17-.13.34-.28.49-.15.15-.37.29-.66.4-.29.11-.69.17-1.2.17s-.91-.06-1.2-.18c-.29-.12-.52-.26-.67-.42-.15-.16-.25-.33-.29-.5-.04-.17-.06-.31-.06-.42v-11.13c0-.28-.06-.52-.19-.73-.13-.21-.35-.31-.66-.31-.16,0-.3.03-.42.09-.12.06-.24.14-.37.25l-.3-.36c.22-.18.47-.36.74-.54.27-.18.57-.33.89-.47.32-.13.66-.25,1.02-.33.37-.09.75-.13,1.15-.13s.77.06,1.06.17c.29.11.53.25.72.43s.33.38.44.6c.11.22.18.44.24.67s.08.44.09.65c0,.21.01.38.01.53Z" fill="url(#linear-gradient-45)"/>
        <path d="m176.56,201.72c-.22,0-.43.03-.63.09-.2.06-.37.15-.53.28-.15.13-.27.29-.36.49s-.13.43-.13.7c0,.37.14.75.41,1.12s.61.75,1.02,1.15.85.81,1.33,1.24c.48.43.92.88,1.33,1.36.41.48.75.98,1.02,1.52.27.54.41,1.11.41,1.73,0,.69-.12,1.31-.35,1.84-.24.54-.57.99-1.01,1.37-.44.37-.97.66-1.59.86-.62.2-1.31.3-2.07.3-.66,0-1.26-.09-1.8-.28-.54-.19-1.02-.42-1.43-.69-.42-.27-.78-.56-1.07-.87-.3-.31-.53-.59-.69-.84l.5-.36c.12.14.28.3.48.47s.41.32.64.47c.24.14.49.26.76.35.27.09.54.14.82.14.69,0,1.26-.17,1.7-.5.44-.33.66-.82.66-1.48,0-.37-.12-.74-.36-1.13-.24-.39-.54-.79-.91-1.2-.37-.41-.76-.84-1.18-1.28-.42-.44-.82-.9-1.18-1.37-.37-.47-.67-.96-.91-1.46-.24-.5-.36-1.02-.36-1.56,0-.61.12-1.13.37-1.59.24-.45.57-.83.98-1.12.41-.3.87-.52,1.4-.67.52-.15,1.06-.22,1.62-.22.64,0,1.23.06,1.76.17.53.12.98.29,1.36.53.38.24.67.53.88.89.21.36.31.77.31,1.24,0,.37-.12.68-.36.95-.24.27-.58.4-1.01.4s-.73-.09-.94-.27c-.22-.18-.32-.42-.32-.73,0-.2.05-.36.15-.48.1-.12.21-.21.34-.28s.24-.13.34-.19c.1-.05.15-.12.15-.21,0-.27-.14-.48-.43-.64-.29-.16-.66-.24-1.11-.24Z" fill="url(#linear-gradient-46)"/>
      </g>
      <g>
        <path d="m111.29,164.03c-2.13,1.91-5.46,2.87-10,2.87s-7.95-.96-10.08-2.87-3.2-4.97-3.2-9.18v-54.75c0-.71-.08-1.43-.25-2.17s-.46-1.39-.9-1.97c-.44-.57-1.04-1.05-1.8-1.43-.77-.38-1.75-.57-2.95-.57-1.09,0-2.16.22-3.2.66-1.04.44-2,.93-2.87,1.48-.98.6-1.97,1.28-2.95,2.05l-2.05-2.71c6.72-5.3,12.83-9.11,18.32-11.43,5.49-2.32,10.64-3.48,15.45-3.48,2.84,0,5.16.83,6.97,2.5,1.8,1.67,2.7,4.3,2.7,7.91v63.93c0,4.21-1.07,7.27-3.2,9.18Z" fill="url(#linear-gradient-47)"/>
        <path d="m173.83,166.89c-5.9,0-11.42-.85-16.56-2.54-5.14-1.69-9.63-4.3-13.48-7.83-3.85-3.52-6.88-8-9.1-13.44-2.21-5.44-3.32-11.87-3.32-19.3s1.11-13.88,3.32-19.34c2.21-5.46,5.25-9.96,9.1-13.48,3.85-3.52,8.35-6.15,13.48-7.87,5.14-1.72,10.66-2.58,16.56-2.58s11.43.86,16.6,2.58,9.67,4.34,13.52,7.87,6.9,8.02,9.14,13.48c2.24,5.46,3.36,11.91,3.36,19.34s-1.12,13.87-3.36,19.3c-2.24,5.44-5.29,9.92-9.14,13.44s-8.36,6.13-13.52,7.83c-5.16,1.69-10.7,2.54-16.6,2.54Zm0-79.18c-1.04,0-2.13.14-3.28.41-1.15.27-2.28.85-3.4,1.72-1.12.87-2.17,2.12-3.16,3.73-.98,1.61-1.86,3.76-2.62,6.43-.77,2.68-1.38,5.97-1.84,9.88-.46,3.91-.7,8.59-.7,14.06s.23,10.15.7,14.06c.46,3.91,1.08,7.17,1.84,9.79.76,2.62,1.64,4.71,2.62,6.27.98,1.56,2.04,2.75,3.16,3.57,1.12.82,2.25,1.34,3.4,1.56,1.15.22,2.24.33,3.28.33s2.14-.11,3.32-.33c1.17-.22,2.32-.74,3.44-1.56,1.12-.82,2.18-2.01,3.2-3.57,1.01-1.56,1.9-3.65,2.66-6.27.76-2.62,1.37-5.87,1.8-9.75.44-3.88.66-8.58.66-14.1s-.22-10.15-.66-14.06c-.44-3.91-1.04-7.2-1.8-9.88-.77-2.68-1.65-4.82-2.66-6.43-1.01-1.61-2.08-2.85-3.2-3.73-1.12-.87-2.27-1.45-3.44-1.72-1.18-.27-2.28-.41-3.32-.41Z" fill="url(#linear-gradient-48)"/>
      </g>
    </g>
  </g>
</svg>