<?xml version="1.0" encoding="UTF-8"?>
<svg id="Layer_2" data-name="Layer 2" xmlns="http://www.w3.org/2000/svg" xmlns:xlink="http://www.w3.org/1999/xlink" viewBox="0 0 121.38 121.1">
  <defs>
    <linearGradient id="linear-gradient" x1="20.46" y1=".64" x2="106.25" y2="133.66" gradientUnits="userSpaceOnUse">
      <stop offset="0" stop-color="#19c6b7"/>
      <stop offset="1" stop-color="#0953a9"/>
    </linearGradient>
    <linearGradient id="linear-gradient-2" x1="20.8" y1=".42" x2="106.58" y2="133.45" xlink:href="#linear-gradient"/>
    <linearGradient id="linear-gradient-3" x1="58.26" y1="33.6" x2="117.19" y2="33.6" gradientUnits="userSpaceOnUse">
      <stop offset="0" stop-color="#f5c230"/>
      <stop offset="0" stop-color="#de347f"/>
      <stop offset=".5" stop-color="#ef5f43"/>
      <stop offset="1" stop-color="#de347f"/>
    </linearGradient>
    <linearGradient id="linear-gradient-4" x1="21.24" y1=".14" x2="107.03" y2="133.16" xlink:href="#linear-gradient"/>
  </defs>
  <g id="Layer_1-2" data-name="Layer 1">
    <path d="m0,60.65c.17-8.37,1.73-16.42,5.2-23.97C14.37,16.73,29.74,4.59,51.5.8c7.71-1.34,15.38-.93,23,.79.6.14,1.31.3,1.71.71.38.38.7,1.2.54,1.65-.2.54-.86,1.06-1.44,1.28-.46.18-1.1-.07-1.65-.19-6.28-1.33-12.61-1.75-19.01-1.06-9.2.99-17.67,4.02-25.29,9.2C15.03,22.91,6.44,36.4,4.31,53.56c-2.13,17.15,2.79,32.36,14.39,45.25,8.36,9.3,18.72,15.37,31.05,17.58,21.83,3.91,40.17-2.67,54.75-19.29,7.59-8.65,11.71-18.92,13.01-30.35.73-6.39.31-12.71-1.08-18.97-.14-.62-.26-1.25-.33-1.88-.11-.98.3-1.64,1.29-1.89.96-.24,1.77.16,2.09,1.28.47,1.63.88,3.29,1.12,4.96,3.23,22.45-3.41,41.42-20.5,56.41-10.05,8.82-21.99,13.42-35.4,14.31-29.69,1.97-56.91-18.16-63.17-48.14-.83-3.99-1.03-8.12-1.52-12.19Z" fill="url(#linear-gradient)"/>
    <path d="m99.03,59.68c-.24-1.89-.59-4.55-.94-7.21-.05-.35-.17-.69-.22-1.04-.18-1.32.2-2.05,1.22-2.35,1.02-.3,1.96.29,2.27,1.66.41,1.79.73,3.61.93,5.43,2.13,19.95-10.2,38.46-29.51,44.31-23.32,7.07-48.05-7.77-52.78-31.66-3.27-16.54,3.61-33.43,17.4-42.65,8.25-5.52,17.33-7.89,27.22-7.05,1.83.16,3.64.54,5.45.85.41.07.82.22,1.21.39.85.38,1.06,1.11.87,1.94-.17.75-.65,1.29-1.47,1.29-.63,0-1.26-.13-1.88-.25-11.57-2.21-22.15.05-31.45,7.32-16.65,13.01-19.49,36.89-6.34,53.42,7.81,9.82,18.13,14.61,30.73,14.5,16.84-.14,34.11-12.76,36.9-33.03.23-1.68.24-3.39.4-5.88Z" fill="url(#linear-gradient-2)"/>
    <path d="m104.44,16.98c3.12.59,6.04,1.13,8.96,1.68.77.14,1.55.23,2.28.49,1.5.52,1.95,1.89,1.07,3.22-.31.47-.74.86-1.14,1.26-6.56,6.55-13.15,13.08-19.68,19.67-1.17,1.18-2.3,1.58-3.97,1.26-2.91-.58-5.88-.86-8.82-1.32-1.38-.22-2.37.17-3.38,1.2-5.5,5.61-11.09,11.13-16.66,16.68-.35.35-.69.71-1.06,1.04-1.23,1.1-2.52,1.19-3.36.24-.68-.76-.51-1.98.42-3.04.19-.21.39-.41.59-.61,5.7-5.71,11.38-11.45,17.13-17.11,1.06-1.04,1.52-2,1.23-3.53-.57-2.91-.87-5.87-1.33-8.8-.23-1.43.06-2.55,1.15-3.63,6.78-6.74,13.5-13.54,20.24-20.31.1-.1.19-.21.3-.3,1.74-1.56,3.45-1.08,3.92,1.17.51,2.42.91,4.86,1.38,7.29.21,1.1.47,2.2.73,3.46Zm-5.49-6.33c-.85.72-1.46,1.17-1.99,1.7-4.96,4.94-9.89,9.92-14.87,14.84-.84.83-1.18,1.65-1.01,2.82.38,2.51.7,5.04.97,7.56.11,1.02.57,1.5,1.58,1.63,2.74.35,5.47.74,8.2,1.14,1.07.16,1.71-.43,2.38-1.1,5.04-5.06,10.1-10.11,15.14-15.17.42-.43.78-.92,1.4-1.65-2.77-.54-5.18-1.07-7.61-1.48-1.63-.27-2.45-1.15-2.72-2.76-.39-2.36-.91-4.71-1.46-7.53Z" fill="url(#linear-gradient-3)"/>
    <path d="m84.32,60.72c0,12.05-10.12,23.71-24.34,23.13-12.88-.52-20.57-10.24-22.17-19.58-2.36-13.75,9.03-28.92,26.44-26.77.7.09,1.41.22,2.07.45,1.11.38,1.62,1.18,1.43,2.05-.22,1.01-1.03,1.52-2.27,1.38-1.4-.15-2.81-.43-4.21-.46-10.44-.22-19.2,7.65-20.09,17.99-.88,10.21,6.35,19.45,16.54,21.13,13.29,2.2,24.99-9.68,22.56-22.91-.09-.49-.22-.97-.27-1.46-.12-1.37.32-2.05,1.39-2.21,1.1-.16,1.81.26,2.09,1.6.38,1.86.56,3.76.83,5.64Z" fill="url(#linear-gradient-4)"/>
  </g>
</svg>